<?xml version="1.0" encoding="UTF-8"?>
<svg version="1.1" xmlns="http://www.w3.org/2000/svg" width="127" height="147">
<path d="M0 0 C0.93199219 -0.00773438 1.86398438 -0.01546875 2.82421875 -0.0234375 C3.72269531 -0.02085938 4.62117188 -0.01828125 5.546875 -0.015625 C6.35479492 -0.01336914 7.16271484 -0.01111328 7.99511719 -0.00878906 C10.48218921 0.27664796 12.06126377 1.07408178 14.25 2.25 C15.136875 2.37375 16.02375 2.4975 16.9375 2.625 C22.77766841 3.72691857 27.97327279 6.5877598 33.25 9.25 C33.25 9.91 33.25 10.57 33.25 11.25 C33.930625 11.435625 34.61125 11.62125 35.3125 11.8125 C38.86656408 13.55172285 41.01530492 15.82896157 43.69921875 18.69140625 C45.18510225 20.35030545 45.18510225 20.35030545 47.25 21.25 C47.25 22.24 47.25 23.23 47.25 24.25 C47.91 24.25 48.57 24.25 49.25 24.25 C50.54935464 26.76712189 51.83954372 29.28829087 53.125 31.8125 C53.67220703 32.86920898 53.67220703 32.86920898 54.23046875 33.94726562 C60.50329031 46.3218318 61.90467744 62.28277334 58.19921875 75.79296875 C57.03362213 79.0559516 55.78361164 82.14559827 54.25 85.25 C53.67378906 86.41789062 53.67378906 86.41789062 53.0859375 87.609375 C52.81007813 88.15078125 52.53421875 88.6921875 52.25 89.25 C51.59 89.25 50.93 89.25 50.25 89.25 C50.17652344 89.78109375 50.10304688 90.3121875 50.02734375 90.859375 C48.93956324 94.20471004 46.92283612 96.73905947 44.8125 99.5 C44.40451172 100.05429688 43.99652344 100.60859375 43.57617188 101.1796875 C42.52046691 102.57810909 41.39012413 103.91950652 40.25 105.25 C39.59 105.25 38.93 105.25 38.25 105.25 C37.755 106.735 37.755 106.735 37.25 108.25 C35.54296875 109.8984375 35.54296875 109.8984375 33.4375 111.625 C30.28968063 114.27727714 27.80083424 117.0124027 25.25 120.25 C24.59 120.25 23.93 120.25 23.25 120.25 C23.0334375 120.80171875 22.816875 121.3534375 22.59375 121.921875 C20.78504366 125.05556389 18.43448326 127.08396506 15.75 129.5 C15.25113281 129.95890625 14.75226563 130.4178125 14.23828125 130.890625 C10.50897507 134.25 10.50897507 134.25 8.25 134.25 C8.25 134.91 8.25 135.57 8.25 136.25 C2.29078435 141.93204283 2.29078435 141.93204283 -2.75 142.25 C-4.77734375 141.0625 -4.77734375 141.0625 -6.6875 139.25 C-7.37070312 138.60675781 -8.05390625 137.96351563 -8.7578125 137.30078125 C-11.11318282 134.87613533 -13.31661618 132.37145768 -15.42578125 129.73046875 C-16.87517606 127.98573635 -16.87517606 127.98573635 -19.75 126.25 C-19.75 125.59 -19.75 124.93 -19.75 124.25 C-20.74 123.92 -21.73 123.59 -22.75 123.25 C-24.4375 121.8125 -24.4375 121.8125 -25.75 120.25 C-25.75 119.59 -25.75 118.93 -25.75 118.25 C-26.74 117.92 -27.73 117.59 -28.75 117.25 C-28.75 116.59 -28.75 115.93 -28.75 115.25 C-30.235 114.755 -30.235 114.755 -31.75 114.25 C-33.08130055 112.71715928 -34.34434309 111.12420921 -35.5625 109.5 C-37.8329094 106.56548547 -39.89726697 103.91097875 -42.875 101.6875 C-50.98018226 94.81571504 -57.40677174 82.71654104 -58.75 72.25 C-58.93175781 71.13496094 -59.11351562 70.01992187 -59.30078125 68.87109375 C-59.78037934 65.00511609 -59.94122904 61.2018843 -59.9375 57.3125 C-59.93814453 56.61318359 -59.93878906 55.91386719 -59.93945312 55.19335938 C-59.88840096 50.21345259 -59.31939532 45.95818596 -57.75 41.25 C-57.09 41.25 -56.43 41.25 -55.75 41.25 C-56.245 39.765 -56.245 39.765 -56.75 38.25 C-55.640625 35.47265625 -55.640625 35.47265625 -54 32.3125 C-53.46890625 31.27222656 -52.9378125 30.23195313 -52.390625 29.16015625 C-49.7680381 24.50818663 -47.62322002 21.68661001 -42.75 19.25 C-42.45480469 18.63125 -42.15960938 18.0125 -41.85546875 17.375 C-38.9128288 11.71847656 -31.27381336 8.06401813 -25.75 5.25 C-24.09080104 4.88128912 -22.4252357 4.53718326 -20.75 4.25 C-20.09 3.59 -19.43 2.93 -18.75 2.25 C-12.44223401 0.22352314 -6.59158203 -0.05562516 0 0 Z M-27.75 30.25 C-27.75 30.91 -27.75 31.57 -27.75 32.25 C-28.41 32.25 -29.07 32.25 -29.75 32.25 C-39.20797638 43.43743492 -40.33537769 54.23345653 -39.75 68.25 C-39.09 68.25 -38.43 68.25 -37.75 68.25 C-37.646875 69.095625 -37.54375 69.94125 -37.4375 70.8125 C-36.49989228 75.5005386 -35.20325197 79.79674803 -31.75 83.25 C-29.27363527 83.0103518 -27.99385301 82.44869504 -26.0625 80.875 C-24.52892916 79.17026469 -24.52892916 79.17026469 -23.75 76.25 C-20.75 75.125 -20.75 75.125 -17.75 74.25 C-17.42 73.92 -17.09 73.59 -16.75 73.25 C-14.36013318 73.12429773 -12.00072824 73.06137305 -9.609375 73.046875 C-8.53058075 73.03832489 -8.53058075 73.03832489 -7.42999268 73.02960205 C-5.90337603 73.02013639 -4.3767388 73.01361188 -2.85009766 73.00976562 C-0.52339426 73.00009721 1.80241183 72.96910595 4.12890625 72.9375 C5.61197392 72.93096631 7.09504792 72.92571728 8.578125 72.921875 C9.27101624 72.9095282 9.96390747 72.8971814 10.67779541 72.88446045 C16.92387548 72.91298836 20.39893106 75.32467875 24.9375 79.3125 C25.51886719 79.81910156 26.10023437 80.32570312 26.69921875 80.84765625 C27.91506455 81.94712387 29.09088179 83.09088179 30.25 84.25 C35.34584015 77.41899067 35.34584015 77.41899067 37.25 69.25 C37.91 69.25 38.57 69.25 39.25 69.25 C39.25 62.65 39.25 56.05 39.25 49.25 C38.59 49.25 37.93 49.25 37.25 49.25 C37.31574219 48.55003906 37.38148437 47.85007812 37.44921875 47.12890625 C37.19504297 43.45581697 35.93435578 41.3445105 34.0625 38.1875 C33.47082031 37.16527344 32.87914063 36.14304687 32.26953125 35.08984375 C29.73680771 31.52835437 27.15005943 28.86623549 22.9375 27.5 C22.380625 27.4175 21.82375 27.335 21.25 27.25 C21.25 26.59 21.25 25.93 21.25 25.25 C13.88920262 21.20156144 6.95255921 19.90010154 -1.3125 19.9375 C-2.02857422 19.92138672 -2.74464844 19.90527344 -3.48242188 19.88867188 C-12.38331723 19.88057279 -21.11327994 24.40968635 -27.75 30.25 Z M57.25 48.25 C58.25 50.25 58.25 50.25 58.25 50.25 Z M-40.75 58.25 C-39.75 61.25 -39.75 61.25 -39.75 61.25 Z M57.25 67.25 C58.25 70.25 58.25 70.25 58.25 70.25 Z M-20.75 100.25 C-16.75 101.25 -16.75 101.25 -16.75 101.25 Z M13.25 100.25 C13.58 101.24 13.91 102.23 14.25 103.25 C15.57 103.25 16.89 103.25 18.25 103.25 C18.25 102.59 18.25 101.93 18.25 101.25 C16.6 100.92 14.95 100.59 13.25 100.25 Z M-16.75 101.25 C-16.75 101.91 -16.75 102.57 -16.75 103.25 C-15.76 103.25 -14.77 103.25 -13.75 103.25 C-13.75 102.59 -13.75 101.93 -13.75 101.25 C-14.74 101.25 -15.73 101.25 -16.75 101.25 Z " fill="#F4C306" transform="translate(63.75,2.75)"/>
<path d="M0 0 C1.17487036 0.75827092 2.33972592 1.53207755 3.5 2.3125 C4.47453125 2.95638672 4.47453125 2.95638672 5.46875 3.61328125 C5.9740625 4.07089844 6.479375 4.52851563 7 5 C7 5.99 7 6.98 7 8 C7.66 8 8.32 8 9 8 C10.29935464 10.51712189 11.58954372 13.03829087 12.875 15.5625 C13.23980469 16.26697266 13.60460937 16.97144531 13.98046875 17.69726562 C20.25329031 30.0718318 21.65467744 46.03277334 17.94921875 59.54296875 C16.78362213 62.8059516 15.53361164 65.89559827 14 69 C13.42378906 70.16789062 13.42378906 70.16789062 12.8359375 71.359375 C12.56007812 71.90078125 12.28421875 72.4421875 12 73 C11.34 73 10.68 73 10 73 C9.92652344 73.53109375 9.85304687 74.0621875 9.77734375 74.609375 C8.68956324 77.95471004 6.67283612 80.48905947 4.5625 83.25 C4.15451172 83.80429688 3.74652344 84.35859375 3.32617188 84.9296875 C2.27046691 86.32810909 1.14012413 87.66950652 0 89 C-0.66 89 -1.32 89 -2 89 C-2.495 90.485 -2.495 90.485 -3 92 C-4.70703125 93.6484375 -4.70703125 93.6484375 -6.8125 95.375 C-9.96031937 98.02727714 -12.44916576 100.7624027 -15 104 C-15.66 104 -16.32 104 -17 104 C-17.2165625 104.55171875 -17.433125 105.1034375 -17.65625 105.671875 C-19.46495634 108.80556389 -21.81551674 110.83396506 -24.5 113.25 C-25.24830078 113.93835938 -25.24830078 113.93835938 -26.01171875 114.640625 C-29.74102493 118 -29.74102493 118 -32 118 C-32 118.66 -32 119.32 -32 120 C-34.82234391 122.6910721 -37.01732681 124.60225133 -40.625 126.0625 C-43 126 -43 126 -45.3125 124.0625 C-45.869375 123.381875 -46.42625 122.70125 -47 122 C-46.278125 122.226875 -45.55625 122.45375 -44.8125 122.6875 C-41.05957471 123.1044917 -40.08221743 122.17722593 -37 120 C-34.61485874 117.8184994 -32.36957044 115.51240755 -30.125 113.1875 C-26.091166 109.03398082 -22.03761653 105.06152602 -17.55541992 101.3894043 C-15.90553684 99.91561923 -14.56698654 98.35205788 -13.1875 96.625 C-12.465625 95.75875 -11.74375 94.8925 -11 94 C-10.34 94 -9.68 94 -9 94 C-8.505 92.515 -8.505 92.515 -8 91 C-7.34 91 -6.68 91 -6 91 C-5.75765625 90.43539062 -5.5153125 89.87078125 -5.265625 89.2890625 C-3.75624691 86.55913792 -1.90692367 84.62729785 0.25 82.375 C12.51613784 68.88815503 15.947854 55.11356617 15.3828125 37.265625 C14.69965481 25.19220916 10.0340792 14.703872 2.125 5.5625 C0 3 0 3 0 0 Z M17 32 C18 34 18 34 18 34 Z M17 51 C18 54 18 54 18 54 Z " fill="#FBE803" transform="translate(104,19)"/>
<path d="M0 0 C0.66 0 1.32 0 2 0 C1.57236327 17.61863319 1.57236327 17.61863319 -3 24 C-3.52722656 24.7425 -4.05445312 25.485 -4.59765625 26.25 C-6.02892161 28.19895709 -7.49208192 30.11007601 -9 32 C-10.9375 31.1875 -10.9375 31.1875 -13 30 C-13.33 29.01 -13.66 28.02 -14 27 C-15.32338632 26.31379969 -16.65949948 25.65213539 -18 25 C-20.14167916 23.43955895 -22.03044262 21.79050671 -24 20 C-24 19.34 -24 18.68 -24 18 C-19.86186295 18.53176995 -17.72917682 20.77932166 -14.75 23.5625 C-13.85796875 24.38878906 -12.9659375 25.21507813 -12.046875 26.06640625 C-11.37140625 26.70449219 -10.6959375 27.34257813 -10 28 C-9.01441551 26.42065361 -8.03677459 24.83634827 -7.0625 23.25 C-6.51722656 22.36828125 -5.97195312 21.4865625 -5.41015625 20.578125 C-4.17284288 18.31600083 -3.46409487 16.51433675 -3 14 C-2.34 14 -1.68 14 -1 14 C-1.185625 13.154375 -1.37125 12.30875 -1.5625 11.4375 C-2.03764857 7.70418982 -1.7218698 4.68153597 -1 1 C-0.67 0.67 -0.34 0.34 0 0 Z " fill="#FBE703" transform="translate(104,58)"/>
<path d="M0 0 C0.845625 0.103125 1.69125 0.20625 2.5625 0.3125 C8.44674264 1.48934853 13.66978559 4.31077418 19 7 C19 7.66 19 8.32 19 9 C19.78375 9.268125 20.5675 9.53625 21.375 9.8125 C24 11 24 11 26 14 C22.01880905 13.42208519 19.2755575 12.18914835 15.875 10.0625 C15.02679688 9.53785156 14.17859375 9.01320313 13.3046875 8.47265625 C11.52378904 7.33469232 9.7584751 6.17231673 8 5 C-1.21017748 2.11837262 -10.42646404 1.38400075 -20 1 C-20 0.34 -20 -0.32 -20 -1 C-5.42606149 -2.71303075 -5.42606149 -2.71303075 0 0 Z " fill="#FAE503" transform="translate(78,5)"/>
<path d="M0 0 C0.99 0 1.98 0 3 0 C2.24110002 7.33603315 2.24110002 7.33603315 1 10.75390625 C-0.02209861 14.07173416 -0.3112806 16.81311368 -0.4140625 20.2734375 C-0.45273438 21.42714844 -0.49140625 22.58085938 -0.53125 23.76953125 C-0.5621875 24.95933594 -0.593125 26.14914063 -0.625 27.375 C-0.66367188 28.58800781 -0.70234375 29.80101563 -0.7421875 31.05078125 C-0.83613786 34.03370521 -0.92180807 37.01662825 -1 40 C-4.56473312 34.65290033 -4.19351248 28.33351906 -4.1875 22.0625 C-4.18814453 21.36318359 -4.18878906 20.66386719 -4.18945312 19.94335938 C-4.13840096 14.96345259 -3.56939532 10.70818596 -2 6 C-1.34 6 -0.68 6 0 6 C-0.33 5.01 -0.66 4.02 -1 3 C-0.67 2.01 -0.34 1.02 0 0 Z " fill="#FAE603" transform="translate(8,38)"/>
<path d="M0 0 C4.05493741 -0.69020211 5.96015057 -0.72653975 9.3984375 1.67578125 C12.70551782 4.60292192 15.54316485 7.31474727 18 11 C18 11.99 18 12.98 18 14 C18.99 14.33 19.98 14.66 21 15 C24.47981859 19.7716576 25.48241483 24.21102202 25 30 C24.01 30.33 23.02 30.66 22 31 C22.33 29.35 22.66 27.7 23 26 C22.34 26 21.68 26 21 26 C20.82984375 25.41992188 20.6596875 24.83984375 20.484375 24.2421875 C18.91053764 19.16907347 17.05721536 15.32226999 14 11 C14 10.34 14 9.68 14 9 C13.01 8.67 12.02 8.34 11 8 C11 7.34 11 6.68 11 6 C9.02 5.34 7.04 4.68 5 4 C5 3.34 5 2.68 5 2 C3.35 1.67 1.7 1.34 0 1 C0 0.67 0 0.34 0 0 Z " fill="#FBE603" transform="translate(80,26)"/>
<path d="M0 0 C0.99 0 1.98 0 3 0 C3.40089844 0.88300781 3.80179688 1.76601562 4.21484375 2.67578125 C7.76655491 10.25099805 11.51947088 16.37141797 17.1796875 22.59765625 C19.11581726 25.15284896 19.65162251 26.84774565 20 30 C10.55390678 22.71863648 4.10328234 13.18538985 0 2 C0 1.34 0 0.68 0 0 Z " fill="#FAE604" transform="translate(6,79)"/>
<path d="M0 0 C0.33 0.66 0.66 1.32 1 2 C-1.64867614 4.72657838 -4.29753401 7.29129572 -7.25 9.6875 C-10.01742194 11.7042322 -10.01742194 11.7042322 -11 14 C-11.99 14 -12.98 14 -14 14 C-15.859375 11.91796875 -15.859375 11.91796875 -17.75 9.1875 C-18.70132812 7.84751953 -18.70132812 7.84751953 -19.671875 6.48046875 C-20.11015625 5.66191406 -20.5484375 4.84335938 -21 4 C-20.67 3.01 -20.34 2.02 -20 1 C-19.34 1 -18.68 1 -18 1 C-16.68 3.64 -15.36 6.28 -14 9 C-9.93654599 8.41704314 -9.93654599 8.41704314 -8.125 5.625 C-5.70492449 2.63549495 -3.4958044 1.5095519 0 0 Z " fill="#FCEA03" transform="translate(46,76)"/>
<path d="M0 0 C0.70125 0.2475 1.4025 0.495 2.125 0.75 C-0.68466518 2.88124944 -3.52837698 4.94393854 -6.4375 6.9375 C-7.20191406 7.46730469 -7.96632813 7.99710938 -8.75390625 8.54296875 C-10.875 9.75 -10.875 9.75 -13.875 9.75 C-13.875 10.41 -13.875 11.07 -13.875 11.75 C-16.65472485 14.76136859 -19.52411741 17.39197151 -22.875 19.75 C-23.205 18.76 -23.535 17.77 -23.875 16.75 C-20.875 14.75 -20.875 14.75 -18.875 13.75 C-18.58109375 13.13125 -18.2871875 12.5125 -17.984375 11.875 C-16.00942258 8.09199256 -12.30285716 6.15270362 -8.875 3.75 C-8.31941406 3.31816406 -7.76382813 2.88632813 -7.19140625 2.44140625 C-4.5758237 0.4780209 -3.31700095 -0.28843486 0 0 Z " fill="#FBE304" transform="translate(39.875,8.25)"/>
<path d="M0 0 C1.51400391 0.01740234 1.51400391 0.01740234 3.05859375 0.03515625 C4.07050781 0.04417969 5.08242187 0.05320312 6.125 0.0625 C7.29869141 0.07990234 7.29869141 0.07990234 8.49609375 0.09765625 C8.62109375 2.47265625 8.62109375 2.47265625 8.49609375 5.09765625 C6.49609375 7.09765625 6.49609375 7.09765625 4.11328125 7.29296875 C3.20835938 7.26976563 2.3034375 7.2465625 1.37109375 7.22265625 C0.00597656 7.19558594 0.00597656 7.19558594 -1.38671875 7.16796875 C-2.08539063 7.14476563 -2.7840625 7.1215625 -3.50390625 7.09765625 C-3.54644981 5.09810879 -3.54471408 3.09723989 -3.50390625 1.09765625 C-2.50390625 0.09765625 -2.50390625 0.09765625 0 0 Z M-0.50390625 2.09765625 C-0.17390625 3.08765625 0.15609375 4.07765625 0.49609375 5.09765625 C1.81609375 5.09765625 3.13609375 5.09765625 4.49609375 5.09765625 C4.49609375 4.43765625 4.49609375 3.77765625 4.49609375 3.09765625 C2.84609375 2.76765625 1.19609375 2.43765625 -0.50390625 2.09765625 Z " fill="#F9D604" transform="translate(77.50390625,100.90234375)"/>
<path d="M0 0 C-2.194541 2.194541 -4.55667913 3.42245665 -7.25390625 4.9140625 C-9.49677564 6.30895666 -11.17411362 8.10648819 -13 10 C-13.66 10 -14.32 10 -15 10 C-15.4021875 10.86625 -15.4021875 10.86625 -15.8125 11.75 C-17.01719859 14.0325868 -18.40798115 15.9737942 -20 18 C-20.66 17.67 -21.32 17.34 -22 17 C-21.1875 15.0625 -21.1875 15.0625 -20 13 C-19.01 12.67 -18.02 12.34 -17 12 C-17 11.29875 -17 10.5975 -17 9.875 C-14.52851104 2.76946923 -6.91914373 -0.15041617 0 0 Z " fill="#FCEA03" transform="translate(49,25)"/>
<path d="M0 0 C1.2065625 0.0309375 1.2065625 0.0309375 2.4375 0.0625 C2.7675 0.7225 3.0975 1.3825 3.4375 2.0625 C5.46213255 2.71463292 5.46213255 2.71463292 7.4375 3.0625 C7.4375 4.3825 7.4375 5.7025 7.4375 7.0625 C5.79175434 7.08938151 4.14588587 7.10884123 2.5 7.125 C1.58347656 7.13660156 0.66695312 7.14820312 -0.27734375 7.16015625 C-2.5625 7.0625 -2.5625 7.0625 -3.5625 6.0625 C-3.6875 3.5625 -3.6875 3.5625 -3.5625 1.0625 C-2.5625 0.0625 -2.5625 0.0625 0 0 Z M-1.5625 3.0625 C2.4375 4.0625 2.4375 4.0625 2.4375 4.0625 Z M2.4375 4.0625 C2.4375 4.7225 2.4375 5.3825 2.4375 6.0625 C3.4275 6.0625 4.4175 6.0625 5.4375 6.0625 C5.4375 5.4025 5.4375 4.7425 5.4375 4.0625 C4.4475 4.0625 3.4575 4.0625 2.4375 4.0625 Z " fill="#FCE903" transform="translate(44.5625,99.9375)"/>
<path d="M0 0 C0.99 0 1.98 0 3 0 C3.02705729 1.77074917 3.04642195 3.54161711 3.0625 5.3125 C3.07410156 6.29863281 3.08570313 7.28476563 3.09765625 8.30078125 C3 11 3 11 2 14 C2.66 14 3.32 14 4 14 C4.33 15.65 4.66 17.3 5 19 C4.34 19 3.68 19 3 19 C3 18.01 3 17.02 3 16 C2.34 16 1.68 16 1 16 C-0.50156874 12.99686252 -0.09281204 10.20932478 -0.0625 6.875 C-0.05347656 5.59367187 -0.04445313 4.31234375 -0.03515625 2.9921875 C-0.02355469 2.00476562 -0.01195313 1.01734375 0 0 Z M1 4 C2 7 2 7 2 7 Z " fill="#FDE702" transform="translate(22,57)"/>
<path d="M0 0 C0 4.05164344 -1.61357669 5.79537442 -4 9 C-7 11 -7 11 -9.1875 10.625 C-9.785625 10.41875 -10.38375 10.2125 -11 10 C-3.70159453 2.51708428 -3.70159453 2.51708428 0 0 Z " fill="#FAD803" transform="translate(85,122)"/>
<path d="M0 0 C0 0.66 0 1.32 0 2 C-0.90363281 2.06058594 -1.80726562 2.12117188 -2.73828125 2.18359375 C-3.91777344 2.26738281 -5.09726562 2.35117187 -6.3125 2.4375 C-7.48425781 2.51871094 -8.65601563 2.59992187 -9.86328125 2.68359375 C-13.02590958 2.8867371 -13.02590958 2.8867371 -16 4 C-16.99 3.34 -17.98 2.68 -19 2 C-12.53991163 0.04978464 -6.7281627 -0.22262303 0 0 Z " fill="#FDEA02" transform="translate(67,21)"/>
<path d="M0 0 C0.99 0.33 1.98 0.66 3 1 C2.04882866 2.1725131 1.08882991 3.33787015 0.125 4.5 C-0.67550781 5.47453125 -0.67550781 5.47453125 -1.4921875 6.46875 C-1.98976563 6.9740625 -2.48734375 7.479375 -3 8 C-3.66 8 -4.32 8 -5 8 C-5.28875 8.639375 -5.5775 9.27875 -5.875 9.9375 C-7 12 -7 12 -9 13 C-8.690625 12.4225 -8.38125 11.845 -8.0625 11.25 C-6.91404028 9.11688145 -6.91404028 9.11688145 -6.75 7.0625 C-5.47945767 3.56850859 -3.0136534 2.10955738 0 0 Z " fill="#FDF202" transform="translate(92,115)"/>
<path d="M0 0 C0 0.99 0 1.98 0 3 C-0.92232422 3.09087891 -0.92232422 3.09087891 -1.86328125 3.18359375 C-2.67152344 3.26738281 -3.47976562 3.35117188 -4.3125 3.4375 C-5.11300781 3.51871094 -5.91351563 3.59992187 -6.73828125 3.68359375 C-9.16087179 3.95265693 -9.16087179 3.95265693 -12 5 C-12 4.01 -12 3.02 -12 2 C-10.7625 1.67 -9.525 1.34 -8.25 1 C-7.55390625 0.814375 -6.8578125 0.62875 -6.140625 0.4375 C-4 0 -4 0 0 0 Z " fill="#FBEA02" transform="translate(57,3)"/>
<path d="M0 0 C0.66 0 1.32 0 2 0 C1.44894091 3.9492568 0.61064629 7.34920174 -1 11 C-1.66 10.67 -2.32 10.34 -3 10 C-2.49287967 6.28111761 -1.88391785 3.26545761 0 0 Z " fill="#FBEC02" transform="translate(26,43)"/>
<path d="M0 0 C6.4 -0.49230769 6.4 -0.49230769 9.4375 2 C10.2109375 2.99 10.2109375 2.99 11 4 C7.65747276 4.07427838 5.1964086 4.06546953 2 3 C0.66893378 2.65772583 -0.66400079 2.32248257 -2 2 C-1.34 2 -0.68 2 0 2 C0 1.34 0 0.68 0 0 Z " fill="#FBE903" transform="translate(69,21)"/>
<path d="M0 0 C0 3 0 3 -1 5 C-1.66 5 -2.32 5 -3 5 C-3 4.34 -3 3.68 -3 3 C-4.65 2.67 -6.3 2.34 -8 2 C-7.67 3.32 -7.34 4.64 -7 6 C-7.66 6 -8.32 6 -9 6 C-9 4.35 -9 2.7 -9 1 C-5.8035914 -0.06546953 -3.34252724 -0.07427838 0 0 Z " fill="#FDEE03" transform="translate(85,101)"/>
<path d="M0 0 C1 2 1 2 0.4375 4.5625 C-1 7 -1 7 -4.125 7.8125 C-5.548125 7.9053125 -5.548125 7.9053125 -7 8 C-6.02133662 6.85373678 -5.04205413 5.70800212 -4.0625 4.5625 C-3.51722656 3.92441406 -2.97195312 3.28632812 -2.41015625 2.62890625 C-1.63204305 1.73008851 -0.84063472 0.84063472 0 0 Z " fill="#FAD604" transform="translate(105,101)"/>
<path d="M0 0 C4.65145228 1.46887967 4.65145228 1.46887967 6.3125 4 C7 6 7 6 7 8 C5 8 5 8 3.375 6.625 C2 5 2 5 2 3 C1.34 3 0.68 3 0 3 C0 2.01 0 1.02 0 0 Z " fill="#EDB104" transform="translate(36,118)"/>
<path d="M0 0 C0.99 0 1.98 0 3 0 C3.66 3.3 4.32 6.6 5 10 C1.65094547 6.65094547 1.10529715 4.50621146 0 0 Z " fill="#FDF302" transform="translate(6,79)"/>
<path d="M0 0 C0.99 0 1.98 0 3 0 C3 3.63 3 7.26 3 11 C2.34 11 1.68 11 1 11 C1.020625 9.9275 1.04125 8.855 1.0625 7.75 C1.0142016 4.85209576 0.86844115 2.71387859 0 0 Z " fill="#FEF601" transform="translate(22,57)"/>
<path d="M0 0 C0.99 0.33 1.98 0.66 3 1 C4.1875 3.5625 4.1875 3.5625 5 6 C2.525 5.01 2.525 5.01 0 4 C0 3.34 0 2.68 0 2 C-0.66 1.67 -1.32 1.34 -2 1 C-1.34 0.67 -0.68 0.34 0 0 Z " fill="#FDEF06" transform="translate(44,125)"/>
<path d="M0 0 C2.62187494 1.04874998 3.79371361 1.64931313 5.25 4.125 C5.4975 4.74375 5.745 5.3625 6 6 C3.5625 5.25 3.5625 5.25 1 4 C0.1875 1.875 0.1875 1.875 0 0 Z " fill="#F6D703" transform="translate(90,30)"/>
<path d="" fill="#FFFF00" transform="translate(0,0)"/>
</svg>
